<svg xmlns="http://www.w3.org/2000/svg" version="1.1" xmlns:xlink="http://www.w3.org/1999/xlink" width="200" height="200"><svg xmlns="http://www.w3.org/2000/svg" version="1.1" xmlns:xlink="http://www.w3.org/1999/xlink" viewBox="0 0 200 200"><rect width="200" height="200" fill="url('#gradient')"></rect><defs><linearGradient id="SvgjsLinearGradient1007" gradientTransform="rotate(185 0.5 0.5)"><stop offset="0%" stop-color="#a2c3ff"></stop><stop offset="100%" stop-color="#a2c3ff"></stop></linearGradient></defs><g><g fill="#223843" transform="matrix(6.284350494374361,0,0,6.284350494374361,-0.5505825826587767,137.01838091360275)" stroke="#1d425b" stroke-width="0.1"><path d="M3.48-14.22L3.48 2.64L1.68 2.64L1.68-14.22L3.48-14.22ZM14.28-4.81L17.69-4.81Q17.62-3.33 16.88-2.19Q16.15-1.05 14.83-0.43Q13.51 0.20 11.81 0.20L11.81 0.20Q9.00 0.20 7.39-1.63Q5.78-3.46 5.78-6.79L5.78-6.79L5.78-7.49Q5.78-9.58 6.51-11.15Q7.24-12.71 8.60-13.57Q9.97-14.42 11.77-14.42L11.77-14.42Q14.36-14.42 15.93-13.06Q17.50-11.70 17.71-9.31L17.71-9.31L14.30-9.31Q14.26-10.61 13.64-11.17Q13.03-11.74 11.77-11.74L11.77-11.74Q10.49-11.74 9.89-10.78Q9.30-9.82 9.27-7.72L9.27-7.72L9.27-6.72Q9.27-4.44 9.84-3.47Q10.41-2.49 11.81-2.49L11.81-2.49Q12.99-2.49 13.61-3.05Q14.24-3.60 14.28-4.81L14.28-4.81ZM25.08 0L19.31 0L19.31-14.22L24.41-14.22Q27.16-14.22 28.59-13.21Q30.02-12.21 30.02-10.29L30.02-10.29Q30.02-9.19 29.51-8.41Q29.00-7.63 28.02-7.26L28.02-7.26Q29.13-6.96 29.73-6.16Q30.32-5.36 30.32-4.21L30.32-4.21Q30.32-2.12 29.00-1.07Q27.68-0.02 25.08 0L25.08 0ZM25.14-6.04L22.73-6.04L22.73-2.64L24.98-2.64Q25.91-2.64 26.41-3.06Q26.90-3.49 26.90-4.26L26.90-4.26Q26.90-6.04 25.14-6.04L25.14-6.04ZM22.73-11.57L22.73-8.29L24.52-8.29Q25.64-8.30 26.12-8.70Q26.60-9.10 26.60-9.88L26.60-9.88Q26.60-10.78 26.08-11.18Q25.57-11.57 24.41-11.57L24.41-11.57L22.73-11.57Z"></path></g></g></svg><style>@media (prefers-color-scheme: light) { :root { filter: none; } }
@media (prefers-color-scheme: dark) { :root { filter: none; } }
</style></svg>